<svg xmlns="http://www.w3.org/2000/svg" viewBox="0 0 391 276"><defs><style>.cls-1{fill:#fff;}.cls-2{fill:#dedede;}.cls-3{fill:#f2f2f2;}.cls-4{fill:#34d0d4;}.cls-5{fill:#ff5245;}.cls-6{fill:#353535;}.cls-7{fill:#ed1a13;}.cls-8{fill:#bfbfbf;}.cls-9{fill:#f0fffe;}.cls-10{fill:#f3fbff;}.cls-11,.cls-12{font-size:5px;font-family:NotoSansCJKkr-Bold-KSCpc-EUC-H, Noto Sans CJK KR;}.cls-11{fill:#08baba;}.cls-12{fill:#1d8b96;}</style></defs><g id="레이어_2" data-name="레이어 2"><g id="planer_font_-_Hind" data-name="planer, font - Hind"><rect class="cls-1" width="391" height="276"/><rect class="cls-2" x="67.59" y="104.52" width="48.96" height="26.95" rx="3.22"/><rect class="cls-2" x="67.59" y="163.47" width="48.96" height="26.95" rx="3.22"/><rect class="cls-2" x="67.59" y="192.95" width="48.96" height="26.96" rx="3.22"/><rect class="cls-2" x="119.3" y="192.95" width="48.96" height="26.96" rx="3.22"/><rect class="cls-2" x="67.59" y="134" width="48.96" height="26.95" rx="3.22"/><rect class="cls-2" x="274.46" y="163.47" width="48.96" height="26.95" rx="3.22"/><rect class="cls-2" x="274.46" y="75.04" width="48.96" height="26.95" rx="3.22"/><rect class="cls-2" x="274.46" y="104.52" width="48.96" height="26.95" rx="3.22"/><rect class="cls-2" x="67.59" y="75.04" width="48.96" height="26.95" rx="3.22"/><rect class="cls-3" x="274.46" y="192.95" width="48.96" height="26.96" rx="3.22"/><rect class="cls-3" x="222.74" y="192.95" width="48.96" height="26.96" rx="3.22"/><rect class="cls-3" x="171.02" y="192.95" width="48.96" height="26.96" rx="3.22"/><rect class="cls-2" x="274.46" y="134" width="48.96" height="26.95" rx="3.22"/><rect class="cls-2" x="119.3" y="163.47" width="48.96" height="26.95" rx="3.22"/><rect class="cls-2" x="119.3" y="134" width="48.96" height="26.95" rx="3.22"/><rect class="cls-2" x="119.3" y="104.52" width="48.96" height="26.95" rx="3.22"/><rect class="cls-2" x="171.02" y="104.52" width="48.96" height="26.95" rx="3.22"/><rect class="cls-2" x="171.02" y="134" width="48.96" height="26.95" rx="3.22"/><rect class="cls-2" x="119.3" y="75.04" width="48.96" height="26.95" rx="3.22"/><rect class="cls-2" x="171.02" y="163.47" width="48.96" height="26.95" rx="3.22"/><rect class="cls-2" x="222.74" y="104.52" width="48.96" height="26.95" rx="3.22"/><rect class="cls-2" x="222.74" y="75.04" width="48.96" height="26.95" rx="3.22"/><rect class="cls-2" x="222.74" y="134" width="48.96" height="26.95" rx="3.22"/><rect class="cls-2" x="222.74" y="163.47" width="48.96" height="26.95" rx="3.22"/><rect class="cls-2" x="171.02" y="75.04" width="48.96" height="26.95" rx="3.22"/><rect class="cls-3" x="326.17" y="192.95" width="48.96" height="26.96" rx="3.22"/><rect class="cls-3" x="274.46" y="222.44" width="48.96" height="26.95" rx="3.22"/><rect class="cls-3" x="326.17" y="222.44" width="48.96" height="26.95" rx="3.22"/><rect class="cls-3" x="222.74" y="222.44" width="48.96" height="26.95" rx="3.22"/><rect class="cls-3" x="119.3" y="222.44" width="48.96" height="26.95" rx="3.22"/><rect class="cls-3" x="171.02" y="222.44" width="48.96" height="26.95" rx="3.22"/><rect class="cls-4" x="326.17" y="55.26" width="48.96" height="17.26" rx="3.22"/><rect class="cls-2" x="326.17" y="75.04" width="48.96" height="26.95" rx="3.22"/><rect class="cls-3" x="67.59" y="222.44" width="48.96" height="26.95" rx="3.22"/><rect class="cls-2" x="326.17" y="134" width="48.96" height="26.95" rx="3.22"/><rect class="cls-2" x="326.17" y="163.47" width="48.96" height="26.95" rx="3.22"/><rect class="cls-2" x="326.17" y="104.52" width="48.96" height="26.95" rx="3.22"/><rect class="cls-5" x="15.87" y="55.26" width="48.96" height="17.26" rx="3.22"/><rect class="cls-4" x="119.3" y="55.26" width="48.96" height="17.26" rx="3.22"/><rect class="cls-4" x="67.59" y="55.26" width="48.96" height="17.26" rx="3.22"/><rect class="cls-3" x="15.87" y="222.44" width="48.96" height="26.95" rx="3.22"/><rect class="cls-4" x="171.02" y="55.26" width="48.96" height="17.26" rx="3.22"/><rect class="cls-4" x="222.74" y="55.26" width="48.96" height="17.26" rx="3.22"/><rect class="cls-4" x="274.46" y="55.26" width="48.96" height="17.26" rx="3.22"/><rect class="cls-2" x="15.87" y="163.47" width="48.96" height="26.95" rx="3.22"/><rect class="cls-2" x="15.87" y="192.95" width="48.96" height="26.96" rx="3.22"/><rect class="cls-2" x="15.87" y="75.04" width="48.96" height="26.95" rx="3.22"/><rect class="cls-2" x="15.87" y="134" width="48.96" height="26.95" rx="3.22"/><rect class="cls-2" x="15.87" y="104.52" width="48.96" height="26.95" rx="3.22"/><path class="cls-6" d="M336.27,43.05v2.74H324.89V43.23c3.54-2.5,7.65-6.32,7.65-9.28,0-1.76-1-2.83-3-2.83a7.2,7.2,0,0,0-4.24,1.66V29.65a8.41,8.41,0,0,1,4.8-1.52c3.3,0,5.78,1.84,5.78,5.34,0,3.25-2.42,6.54-6.56,9.58Z"/><path class="cls-6" d="M344.69,28c4.08,0,6.3,3.55,6.3,9s-2.08,9-6.3,9c-4.07,0-6.23-3.68-6.23-9S340.64,28,344.69,28Zm0,15.07c1.9,0,3-2.13,3-6.11s-1.2-6.06-3-6.06-3,2-3,6.06S342.88,43.1,344.69,43.1Z"/><path class="cls-6" d="M364.42,43.05v2.74H353V43.23c3.54-2.5,7.65-6.32,7.65-9.28,0-1.76-1-2.83-3-2.83a7.17,7.17,0,0,0-4.23,1.66V29.65a8.38,8.38,0,0,1,4.79-1.52c3.31,0,5.79,1.84,5.79,5.34,0,3.25-2.43,6.54-6.56,9.58Z"/><path class="cls-6" d="M365.94,31.07l4.61-2.72h2.82V45.79H370.2v-14l-4.26,2.58Z"/><path class="cls-1" d="M30.59,62.27a2.5,2.5,0,0,0-1.26-.35c-.61,0-1,.3-1,.74s.48.71,1,1,1.48.66,1.48,1.64-.8,1.58-1.87,1.58a3.14,3.14,0,0,1-1.53-.36V65.6a2.62,2.62,0,0,0,1.52.49c.59,0,1-.29,1-.8s-.46-.69-1-1-1.49-.66-1.49-1.64.79-1.54,1.85-1.54a3,3,0,0,1,1.29.26Z"/><path class="cls-1" d="M35.27,62.58v4.2h-.81v-.72a1.3,1.3,0,0,1-1.31.77,1.26,1.26,0,0,1-1.35-1.38V62.58h.82v2.67c0,.59.32.89.8.89s1-.45,1-1.27V62.58Z"/><path class="cls-1" d="M37.34,63.3a1.34,1.34,0,0,1,1.3-.77A1.28,1.28,0,0,1,40,63.94v2.84h-.81V64.13c0-.6-.33-.9-.8-.9s-1,.43-1,1.27v2.28h-.81v-4.2h.81Z"/><path class="cls-1" d="M44.86,60.93v5.85H44v-.64a1.44,1.44,0,0,1-1.29.7A1.91,1.91,0,0,1,41,64.7c0-1.33.76-2.17,1.8-2.17a1.46,1.46,0,0,1,1.27.69V60.93ZM44,64.65c0-1.06-.65-1.41-1.12-1.41s-1.12.49-1.12,1.48c0,.84.47,1.41,1.1,1.41S44,65.72,44,64.65Z"/><path class="cls-1" d="M46.21,62.8a2.84,2.84,0,0,1,1.29-.28c1.14,0,1.65.55,1.65,1.6v2.66h-.8v-.49a1.24,1.24,0,0,1-1.14.53A1.21,1.21,0,0,1,45.9,65.6c0-.81.63-1.28,1.73-1.28h.69v-.24c0-.54-.22-.87-.89-.87a2.26,2.26,0,0,0-1.22.38Zm1.48,2.11c-.65,0-.93.3-.93.65s.23.62.71.62a.77.77,0,0,0,.85-.8v-.47Z"/><path class="cls-1" d="M49.61,62.58h.9L51,64c.59,1.52.66,1.77.66,1.77s.07-.25.59-1.77l.48-1.37h.86L52.1,66.67c-.45,1.21-1.1,1.61-1.84,1.61a1.53,1.53,0,0,1-.38,0v-.7a1,1,0,0,0,.28,0,1.14,1.14,0,0,0,1.12-.89Z"/><path class="cls-1" d="M78.16,61.2h1l.74,2c.44,1.17.81,2.33.81,2.33s.38-1.12.83-2.33l.78-2h1l.51,5.58H83l-.2-2.18c-.11-1.19-.17-2.24-.17-2.24l-.81,2.24-.78,2.07h-.67l-.76-2.07c-.45-1.3-.75-2.21-.75-2.21,0,.22-.06,1.17-.13,2.21l-.17,2.18h-.84Z"/><path class="cls-1" d="M84.72,64.72a2,2,0,0,1,2-2.19,2.17,2.17,0,1,1-2,2.19Zm.84,0c0,.79.42,1.47,1.14,1.47s1.16-.67,1.16-1.47-.32-1.49-1.16-1.49S85.56,63.91,85.56,64.7Z"/><path class="cls-1" d="M90.54,63.3a1.36,1.36,0,0,1,1.31-.77,1.28,1.28,0,0,1,1.35,1.41v2.84h-.81V64.13c0-.6-.33-.9-.8-.9s-1,.43-1,1.27v2.28h-.81v-4.2h.81Z"/><path class="cls-1" d="M98.06,60.93v5.85h-.82v-.64a1.41,1.41,0,0,1-1.28.7,1.91,1.91,0,0,1-1.79-2.14c0-1.33.77-2.17,1.81-2.17a1.44,1.44,0,0,1,1.26.69V60.93Zm-.82,3.72c0-1.06-.64-1.41-1.11-1.41S95,63.73,95,64.72c0,.84.47,1.41,1.09,1.41S97.24,65.72,97.24,64.65Z"/><path class="cls-1" d="M99.42,62.8a2.81,2.81,0,0,1,1.29-.28c1.14,0,1.65.55,1.65,1.6v2.66h-.81v-.49a1.24,1.24,0,0,1-1.13.53A1.22,1.22,0,0,1,99.1,65.6c0-.81.64-1.28,1.73-1.28h.7v-.24c0-.54-.22-.87-.89-.87a2.23,2.23,0,0,0-1.22.38Zm1.48,2.11c-.65,0-.94.3-.94.65s.24.62.72.62a.78.78,0,0,0,.85-.8v-.47Z"/><path class="cls-1" d="M102.82,62.58h.9l.52,1.37c.59,1.52.66,1.77.66,1.77s.07-.25.59-1.77l.47-1.37h.86l-1.51,4.09c-.46,1.21-1.1,1.61-1.85,1.61a1.58,1.58,0,0,1-.38,0v-.7a1,1,0,0,0,.28,0,1.16,1.16,0,0,0,1.13-.89Z"/><path class="cls-1" d="M133.28,61.91h-1.46v4.87H131V61.91h-1.46V61.2h3.77Z"/><path class="cls-1" d="M136.88,62.58v4.2h-.81v-.72a1.29,1.29,0,0,1-1.31.77,1.26,1.26,0,0,1-1.35-1.38V62.58h.82v2.67c0,.59.32.89.8.89s1-.45,1-1.27V62.58Z"/><path class="cls-1" d="M141.26,66.56a2.84,2.84,0,0,1-1.22.26,2,2,0,0,1-2.13-2.12,1.91,1.91,0,0,1,1.87-2.17c1.05,0,1.75.66,1.75,2a3.5,3.5,0,0,1-.05.54h-2.76a1.31,1.31,0,0,0,1.43,1.12,2,2,0,0,0,1.11-.31Zm-.52-2.33a.92.92,0,0,0-.94-1c-.53,0-1,.39-1.08,1.18h2Z"/><path class="cls-1" d="M144.76,63.46a2.23,2.23,0,0,0-1-.24c-.39,0-.63.2-.63.48s.43.52.86.72S145,65,145,65.62s-.58,1.2-1.48,1.2a3.09,3.09,0,0,1-1.24-.24v-.77a2.51,2.51,0,0,0,1.2.35c.45,0,.68-.2.68-.48s-.39-.54-.92-.76a1.3,1.3,0,0,1-1-1.19c0-.77.65-1.19,1.45-1.19a2.82,2.82,0,0,1,1.06.18Z"/><path class="cls-1" d="M149.37,60.93v5.85h-.82v-.64a1.41,1.41,0,0,1-1.28.7,1.91,1.91,0,0,1-1.79-2.14c0-1.33.76-2.17,1.81-2.17a1.45,1.45,0,0,1,1.26.69V60.93Zm-.82,3.72c0-1.06-.64-1.41-1.11-1.41-.62,0-1.12.49-1.12,1.48,0,.84.47,1.41,1.09,1.41S148.55,65.72,148.55,64.65Z"/><path class="cls-1" d="M150.73,62.8a2.81,2.81,0,0,1,1.29-.28c1.14,0,1.64.55,1.64,1.6v2.66h-.8v-.49a1.24,1.24,0,0,1-1.13.53,1.22,1.22,0,0,1-1.32-1.22c0-.81.64-1.28,1.73-1.28h.7v-.24c0-.54-.23-.87-.9-.87a2.23,2.23,0,0,0-1.21.38Zm1.48,2.11c-.66,0-.94.3-.94.65s.24.62.72.62a.78.78,0,0,0,.85-.8v-.47Z"/><path class="cls-1" d="M154.13,62.58h.9l.52,1.37c.59,1.52.65,1.77.65,1.77s.08-.25.6-1.77l.47-1.37h.86l-1.51,4.09c-.46,1.21-1.1,1.61-1.85,1.61a1.58,1.58,0,0,1-.38,0v-.7a1,1,0,0,0,.28,0,1.16,1.16,0,0,0,1.13-.89Z"/><path class="cls-1" d="M178.78,61.28l.59,2,.75,2.63s.31-1.51.57-2.63l.49-2.07H182l-1.37,5.58h-1L179.13,65c-.52-1.71-.72-2.49-.72-2.49s-.19.78-.7,2.49l-.51,1.76h-1l-1.46-5.58h.88l.52,2.06c.27,1.05.62,2.62.62,2.62s.37-1.39.73-2.62l.57-2Z"/><path class="cls-1" d="M185.76,66.56a2.87,2.87,0,0,1-1.22.26,2,2,0,0,1-2.14-2.12,1.92,1.92,0,0,1,1.88-2.17c1,0,1.75.66,1.75,2,0,.12,0,.4-.05.54h-2.76a1.3,1.3,0,0,0,1.42,1.12,2,2,0,0,0,1.12-.31Zm-.52-2.33c0-.61-.34-1-.94-1s-1,.39-1.09,1.18h2Z"/><path class="cls-1" d="M190.52,60.93v5.85h-.82v-.64a1.43,1.43,0,0,1-1.28.7,1.91,1.91,0,0,1-1.79-2.14c0-1.33.76-2.17,1.8-2.17a1.46,1.46,0,0,1,1.27.69V60.93Zm-.82,3.72c0-1.06-.65-1.41-1.12-1.41s-1.12.49-1.12,1.48c0,.84.48,1.41,1.1,1.41S189.7,65.72,189.7,64.65Z"/><path class="cls-1" d="M192.58,63.3a1.36,1.36,0,0,1,1.31-.77,1.28,1.28,0,0,1,1.35,1.41v2.84h-.81V64.13c0-.6-.33-.9-.8-.9s-1,.43-1,1.27v2.28h-.81v-4.2h.81Z"/><path class="cls-1" d="M199.58,66.56a2.91,2.91,0,0,1-1.23.26,2,2,0,0,1-2.13-2.12,1.91,1.91,0,0,1,1.87-2.17c1,0,1.75.66,1.75,2a3.5,3.5,0,0,1-.05.54H197a1.31,1.31,0,0,0,1.43,1.12,2.07,2.07,0,0,0,1.12-.31Zm-.53-2.33a.92.92,0,0,0-.94-1c-.53,0-1,.39-1.08,1.18h2Z"/><path class="cls-1" d="M203.07,63.46a2.23,2.23,0,0,0-1-.24c-.39,0-.63.2-.63.48s.43.52.87.72,1,.55,1,1.2-.58,1.2-1.47,1.2a3.11,3.11,0,0,1-1.25-.24v-.77a2.51,2.51,0,0,0,1.2.35c.45,0,.68-.2.68-.48s-.39-.54-.92-.76a1.3,1.3,0,0,1-1-1.19c0-.77.65-1.19,1.45-1.19a2.82,2.82,0,0,1,1.06.18Z"/><path class="cls-1" d="M207.68,60.93v5.85h-.82v-.64a1.41,1.41,0,0,1-1.28.7,1.91,1.91,0,0,1-1.79-2.14c0-1.33.76-2.17,1.81-2.17a1.44,1.44,0,0,1,1.26.69V60.93Zm-.82,3.72c0-1.06-.64-1.41-1.11-1.41-.62,0-1.12.49-1.12,1.48,0,.84.47,1.41,1.09,1.41S206.86,65.72,206.86,64.65Z"/><path class="cls-1" d="M209,62.8a2.81,2.81,0,0,1,1.29-.28c1.14,0,1.65.55,1.65,1.6v2.66h-.81v-.49a1.24,1.24,0,0,1-1.13.53,1.22,1.22,0,0,1-1.32-1.22c0-.81.64-1.28,1.73-1.28h.7v-.24c0-.54-.23-.87-.9-.87a2.23,2.23,0,0,0-1.21.38Zm1.48,2.11c-.65,0-.94.3-.94.65s.24.62.72.62a.78.78,0,0,0,.85-.8v-.47Z"/><path class="cls-1" d="M212.44,62.58h.9l.52,1.37c.59,1.52.65,1.77.65,1.77s.08-.25.6-1.77l.47-1.37h.86l-1.51,4.09c-.46,1.21-1.1,1.61-1.85,1.61a1.58,1.58,0,0,1-.38,0v-.7a1,1,0,0,0,.28,0,1.16,1.16,0,0,0,1.13-.89Z"/><path class="cls-1" d="M234.81,61.91h-1.47v4.87h-.85V61.91H231V61.2h3.78Z"/><path class="cls-1" d="M236.49,63.3a1.31,1.31,0,0,1,1.29-.77A1.29,1.29,0,0,1,239.14,64v2.81h-.81V64.13a.79.79,0,0,0-.79-.9c-.48,0-1,.34-1,1.27v2.28h-.82V60.93h.82Z"/><path class="cls-1" d="M243.77,62.58v4.2H243v-.72a1.3,1.3,0,0,1-1.31.77,1.26,1.26,0,0,1-1.35-1.38V62.58h.82v2.67c0,.59.31.89.79.89s1.05-.45,1.05-1.27V62.58Z"/><path class="cls-1" d="M245.83,63.32a1.14,1.14,0,0,1,1.1-.78,1.15,1.15,0,0,1,.26,0v.79a.9.9,0,0,0-.39-.07c-.58,0-1,.59-1,1.26v2.23H245v-4.2h.81Z"/><path class="cls-1" d="M250.1,63.46a2.22,2.22,0,0,0-1-.24c-.4,0-.63.2-.63.48s.42.52.86.72,1,.55,1,1.2-.58,1.2-1.47,1.2a3.05,3.05,0,0,1-1.24-.24v-.77a2.48,2.48,0,0,0,1.2.35c.45,0,.68-.2.68-.48s-.39-.54-.92-.76a1.31,1.31,0,0,1-1-1.19c0-.77.66-1.19,1.45-1.19a2.74,2.74,0,0,1,1.06.18Z"/><path class="cls-1" d="M254.72,60.93v5.85h-.82v-.64a1.43,1.43,0,0,1-1.28.7,1.91,1.91,0,0,1-1.79-2.14c0-1.33.76-2.17,1.8-2.17a1.46,1.46,0,0,1,1.27.69V60.93Zm-.82,3.72c0-1.06-.65-1.41-1.12-1.41s-1.12.49-1.12,1.48c0,.84.48,1.41,1.1,1.41S253.9,65.72,253.9,64.65Z"/><path class="cls-1" d="M256.07,62.8a2.84,2.84,0,0,1,1.29-.28c1.15,0,1.65.55,1.65,1.6v2.66h-.8v-.49a1.24,1.24,0,0,1-1.14.53,1.21,1.21,0,0,1-1.31-1.22c0-.81.64-1.28,1.73-1.28h.69v-.24c0-.54-.22-.87-.89-.87a2.26,2.26,0,0,0-1.22.38Zm1.48,2.11c-.65,0-.93.3-.93.65s.23.62.71.62a.77.77,0,0,0,.85-.8v-.47Z"/><path class="cls-1" d="M259.47,62.58h.91L260.9,64c.58,1.52.65,1.77.65,1.77s.08-.25.6-1.77l.47-1.37h.86L262,66.67c-.45,1.21-1.1,1.61-1.84,1.61a1.53,1.53,0,0,1-.38,0v-.7a1,1,0,0,0,.28,0,1.14,1.14,0,0,0,1.12-.89Z"/><path class="cls-1" d="M289.33,61.91v1.83h2v.72h-2v2.32h-.85V61.2h3.16v.71Z"/><path class="cls-1" d="M293.46,63.32a1.13,1.13,0,0,1,1.1-.78l.26,0v.79a.9.9,0,0,0-.39-.07c-.58,0-1,.59-1,1.26v2.23h-.81v-4.2h.81Z"/><path class="cls-1" d="M295.78,60.79a.51.51,0,1,1,0,1,.51.51,0,1,1,0-1Zm-.41,1.79h.82v4.2h-.82Z"/><path class="cls-1" d="M301.13,60.93v5.85h-.82v-.64a1.43,1.43,0,0,1-1.28.7,1.91,1.91,0,0,1-1.79-2.14c0-1.33.76-2.17,1.8-2.17a1.46,1.46,0,0,1,1.27.69V60.93Zm-.82,3.72c0-1.06-.64-1.41-1.12-1.41s-1.11.49-1.11,1.48c0,.84.47,1.41,1.09,1.41S300.31,65.72,300.31,64.65Z"/><path class="cls-1" d="M302.48,62.8a2.85,2.85,0,0,1,1.3-.28c1.14,0,1.64.55,1.64,1.6v2.66h-.8v-.49a1.24,1.24,0,0,1-1.13.53,1.22,1.22,0,0,1-1.32-1.22c0-.81.64-1.28,1.73-1.28h.7v-.24c0-.54-.23-.87-.9-.87a2.26,2.26,0,0,0-1.22.38ZM304,64.91c-.66,0-.94.3-.94.65s.23.62.71.62a.78.78,0,0,0,.86-.8v-.47Z"/><path class="cls-1" d="M305.88,62.58h.91l.52,1.37c.59,1.52.65,1.77.65,1.77s.08-.25.6-1.77l.47-1.37h.86l-1.51,4.09c-.46,1.21-1.11,1.61-1.85,1.61a1.53,1.53,0,0,1-.38,0v-.7a1,1,0,0,0,.28,0,1.16,1.16,0,0,0,1.13-.89Z"/><path class="cls-1" d="M338.33,62.27a2.49,2.49,0,0,0-1.25-.35c-.62,0-1,.3-1,.74s.48.71,1,1c.71.3,1.48.66,1.48,1.64s-.79,1.58-1.87,1.58a3.13,3.13,0,0,1-1.52-.36V65.6a2.59,2.59,0,0,0,1.51.49c.6,0,1-.29,1-.8s-.46-.69-1-1-1.49-.66-1.49-1.64.78-1.54,1.85-1.54a3,3,0,0,1,1.28.26Z"/><path class="cls-1" d="M339.7,62.8a2.81,2.81,0,0,1,1.29-.28c1.14,0,1.65.55,1.65,1.6v2.66h-.81v-.49a1.24,1.24,0,0,1-1.13.53,1.22,1.22,0,0,1-1.32-1.22c0-.81.64-1.28,1.73-1.28h.7v-.24c0-.54-.23-.87-.9-.87a2.23,2.23,0,0,0-1.21.38Zm1.48,2.11c-.66,0-.94.3-.94.65s.24.62.71.62a.78.78,0,0,0,.86-.8v-.47Z"/><path class="cls-1" d="M344.66,65.52a.53.53,0,0,0,.58.61,1,1,0,0,0,.57-.18v.72a1.59,1.59,0,0,1-.67.15,1.16,1.16,0,0,1-1.3-1.31v-2.3h-.65v-.63h.65v-1h.82v1h1.1v.63h-1.1Z"/><path class="cls-1" d="M350.12,62.58v4.2h-.81v-.72a1.29,1.29,0,0,1-1.31.77,1.26,1.26,0,0,1-1.35-1.38V62.58h.82v2.67c0,.59.32.89.8.89s1-.45,1-1.27V62.58Z"/><path class="cls-1" d="M352.19,63.32a1.13,1.13,0,0,1,1.1-.78l.26,0v.79a.92.92,0,0,0-.39-.07c-.58,0-1,.59-1,1.26v2.23h-.81v-4.2h.81Z"/><path class="cls-1" d="M357.72,60.93v5.85h-.82v-.64a1.41,1.41,0,0,1-1.28.7,1.91,1.91,0,0,1-1.79-2.14c0-1.33.77-2.17,1.81-2.17a1.44,1.44,0,0,1,1.26.69V60.93Zm-.82,3.72c0-1.06-.64-1.41-1.11-1.41s-1.12.49-1.12,1.48c0,.84.47,1.41,1.09,1.41S356.9,65.72,356.9,64.65Z"/><path class="cls-1" d="M359.08,62.8a2.81,2.81,0,0,1,1.29-.28c1.14,0,1.65.55,1.65,1.6v2.66h-.81v-.49a1.24,1.24,0,0,1-1.13.53,1.22,1.22,0,0,1-1.32-1.22c0-.81.64-1.28,1.73-1.28h.7v-.24c0-.54-.22-.87-.89-.87a2.23,2.23,0,0,0-1.22.38Zm1.48,2.11c-.65,0-.94.3-.94.65s.24.62.72.62a.78.78,0,0,0,.85-.8v-.47Z"/><path class="cls-1" d="M362.48,62.58h.9L363.9,64c.59,1.52.66,1.77.66,1.77s.07-.25.59-1.77l.47-1.37h.86L365,66.67c-.46,1.21-1.1,1.61-1.85,1.61a1.58,1.58,0,0,1-.38,0v-.7a1,1,0,0,0,.28,0,1.16,1.16,0,0,0,1.13-.89Z"/><path class="cls-7" d="M59.9,94l1.57-1h.75v6.62h-.79V93.94l-1.53.94Z"/><path d="M114.27,99v.7h-4.18V99c1.52-1.14,3.14-2.66,3.14-4a1.21,1.21,0,0,0-1.35-1.3,2.73,2.73,0,0,0-1.57.6v-.8A2.77,2.77,0,0,1,112,93a1.94,1.94,0,0,1,2.11,2c0,1.3-1.17,2.7-2.87,4Z"/><path d="M162.3,93.37a2.74,2.74,0,0,1,1.35-.37c1.37,0,2.06.82,2.06,1.74a1.64,1.64,0,0,1-1.06,1.6,1.5,1.5,0,0,1,1.25,1.53,1.9,1.9,0,0,1-2.16,1.88,4.34,4.34,0,0,1-1.65-.33v-.8a3.47,3.47,0,0,0,1.63.39,1.21,1.21,0,0,0,1.37-1.2c0-.72-.56-1.12-1.55-1.12h-.43V96h.43a1.22,1.22,0,0,0,1.34-1.18c0-.74-.49-1.08-1.25-1.08a2.64,2.64,0,0,0-1.33.41Z"/><path d="M217.89,98.08h-1v1.61h-.78V98.08h-3v-.7l2.52-4.31h1.29v4.31h1Zm-1.76-.7V93.55l-2.22,3.83Z"/><path d="M266.42,95.75a3.64,3.64,0,0,1,.79-.1,2,2,0,0,1,2.19,2,2.12,2.12,0,0,1-2.4,2.15,4.05,4.05,0,0,1-1.69-.34v-.79a3.39,3.39,0,0,0,1.56.38c1.1,0,1.7-.46,1.7-1.43,0-.8-.6-1.21-1.41-1.21a3.87,3.87,0,0,0-1.53.35V93.07H269v.7h-2.53Z"/><path d="M320.74,93.81a2.22,2.22,0,0,0-.92-.19c-1.33,0-2.05,1.17-2.21,2.51a2.32,2.32,0,0,1,1.65-.7,1.9,1.9,0,0,1,1.95,2.1,2.07,2.07,0,0,1-2.08,2.27c-1.56,0-2.35-1.32-2.35-3.11,0-2.11,1.08-3.81,3-3.81a2.88,2.88,0,0,1,.93.15Zm-.36,3.71a1.23,1.23,0,0,0-1.22-1.37,2.14,2.14,0,0,0-1.58.74c.05,1.48.7,2.17,1.55,2.17S320.38,98.42,320.38,97.52Z"/><path d="M373.17,93.07v.7l-2.74,5.92h-.85l2.74-5.92h-3.47v-.7Z"/><path class="cls-8" d="M215.06,211.94l1.56-.95h.75v6.62h-.79v-5.75l-1.52.94Z"/><path class="cls-8" d="M269.42,216.91v.7h-4.17v-.68c1.51-1.15,3.13-2.66,3.13-4a1.22,1.22,0,0,0-1.35-1.31,2.8,2.8,0,0,0-1.57.6v-.8a2.84,2.84,0,0,1,1.65-.55,1.92,1.92,0,0,1,2.1,2c0,1.29-1.16,2.69-2.86,4Z"/><path class="cls-8" d="M317.45,211.29a2.77,2.77,0,0,1,1.35-.37c1.38,0,2.07.82,2.07,1.74a1.67,1.67,0,0,1-1.07,1.6,1.5,1.5,0,0,1,1.26,1.52,1.91,1.91,0,0,1-2.17,1.89,4.08,4.08,0,0,1-1.64-.34v-.8a3.32,3.32,0,0,0,1.62.4,1.21,1.21,0,0,0,1.37-1.21c0-.71-.56-1.11-1.55-1.11h-.42v-.7h.42a1.22,1.22,0,0,0,1.35-1.17c0-.74-.5-1.09-1.26-1.09a2.68,2.68,0,0,0-1.33.42Z"/><path class="cls-8" d="M373.05,216h-1v1.61h-.79V216h-3v-.7l2.51-4.31h1.3v4.31h1Zm-1.77-.7v-3.84l-2.21,3.84Z"/><path class="cls-7" d="M62.47,127.45c0,1.11-1,1.8-2.24,1.8s-2.15-.66-2.15-1.75a1.66,1.66,0,0,1,1.19-1.63,1.58,1.58,0,0,1-1.08-1.53,2.07,2.07,0,0,1,4.12,0,1.58,1.58,0,0,1-1.06,1.5A1.58,1.58,0,0,1,62.47,127.45Zm-.82-.07c0-.59-.4-1.16-1.41-1.15a1.2,1.2,0,0,0-1.35,1.23c0,.58.45,1.08,1.35,1.08S61.65,128,61.65,127.38Zm-2.65-3a1.26,1.26,0,1,0,1.23-1.14A1.13,1.13,0,0,0,59,124.33Z"/><path d="M110.25,128.27a2.77,2.77,0,0,0,1.12.23c1.29,0,1.92-.85,2.08-2.3a1.77,1.77,0,0,1-1.5.6,2.17,2.17,0,0,1,.09-4.33c1.57,0,2.24,1.35,2.24,2.92,0,2.32-.91,3.86-2.88,3.86a3.51,3.51,0,0,1-1.15-.19Zm3.24-2.88c0-1.15-.35-2.18-1.43-2.18-.76,0-1.26.54-1.26,1.44a1.28,1.28,0,0,0,1.35,1.44,1.62,1.62,0,0,0,1.34-.65Z"/><path d="M158,123.5l1.57-1h.74v6.62h-.78v-5.75l-1.53.94Z"/><path d="M163.65,122.47c1.42,0,2.34,1.27,2.34,3.37s-.81,3.41-2.34,3.41-2.29-1.36-2.29-3.41S162.29,122.47,163.65,122.47Zm0,6c.91,0,1.52-.92,1.52-2.65s-.69-2.61-1.52-2.61-1.48.85-1.48,2.61S162.85,128.49,163.65,128.49Z"/><path d="M212.74,123.5l1.57-1h.74v6.62h-.78v-5.75l-1.53.94Z"/><path d="M215.05,123.5l1.57-1h.75v6.62h-.79v-5.75l-1.53.94Z"/><path d="M262,123.5l1.57-1h.74v6.62h-.78v-5.75l-1.53.94Z"/><path d="M269.42,128.47v.7h-4.17v-.68c1.51-1.14,3.13-2.66,3.13-4a1.21,1.21,0,0,0-1.35-1.3,2.73,2.73,0,0,0-1.57.6V123a2.78,2.78,0,0,1,1.65-.56,1.93,1.93,0,0,1,2.1,2c0,1.3-1.16,2.7-2.86,4Z"/><path d="M314,123.5l1.57-1h.75v6.62h-.79v-5.75l-1.53.94Z"/><path d="M317.45,122.85a2.77,2.77,0,0,1,1.35-.37c1.38,0,2.07.82,2.07,1.74a1.65,1.65,0,0,1-1.07,1.6,1.51,1.51,0,0,1,1.26,1.53,1.91,1.91,0,0,1-2.17,1.88,4.25,4.25,0,0,1-1.64-.33v-.8a3.43,3.43,0,0,0,1.62.39,1.21,1.21,0,0,0,1.37-1.2c0-.72-.56-1.12-1.55-1.12h-.42v-.7h.42A1.22,1.22,0,0,0,320,124.3c0-.74-.5-1.08-1.26-1.08a2.67,2.67,0,0,0-1.33.41Z"/><path d="M364.92,123.5l1.57-1h.75v6.62h-.79v-5.75l-1.53.94Z"/><path d="M373.05,127.56h-1v1.61h-.79v-1.61h-3v-.7l2.51-4.31h1.3v4.31h1Zm-1.77-.7V123l-2.21,3.83Z"/><path class="cls-8" d="M59.55,243.15a3.64,3.64,0,0,1,.79-.1,2,2,0,0,1,2.19,2,2.12,2.12,0,0,1-2.4,2.15,3.91,3.91,0,0,1-1.69-.35V246a3.28,3.28,0,0,0,1.56.39c1.1,0,1.7-.47,1.7-1.43,0-.8-.61-1.21-1.41-1.21a3.87,3.87,0,0,0-1.53.35v-3.66h3.31v.69H59.55Z"/><path class="cls-8" d="M113.87,241.21a2.08,2.08,0,0,0-.92-.2c-1.33,0-2,1.18-2.21,2.51a2.35,2.35,0,0,1,1.65-.7,1.9,1.9,0,0,1,2,2.11,2.07,2.07,0,0,1-2.08,2.27c-1.56,0-2.35-1.33-2.35-3.11,0-2.12,1.08-3.82,3-3.82a2.62,2.62,0,0,1,.93.16Zm-.36,3.71a1.24,1.24,0,0,0-1.22-1.38,2.18,2.18,0,0,0-1.58.74c.05,1.49.7,2.18,1.55,2.18S113.51,245.82,113.51,244.92Z"/><path class="cls-8" d="M166.3,240.47v.69l-2.74,5.93h-.85l2.74-5.93H162v-.69Z"/><path class="cls-8" d="M217.62,245.37c0,1.11-1,1.8-2.23,1.8s-2.15-.66-2.15-1.75a1.65,1.65,0,0,1,1.19-1.63,1.57,1.57,0,0,1-1.08-1.53,2.06,2.06,0,0,1,4.11,0,1.58,1.58,0,0,1-1.06,1.5A1.56,1.56,0,0,1,217.62,245.37Zm-.82-.08c0-.58-.4-1.15-1.4-1.14a1.21,1.21,0,0,0-1.36,1.23c0,.57.45,1.08,1.36,1.08S216.8,245.9,216.8,245.29Zm-2.64-3a1.25,1.25,0,1,0,1.23-1.15A1.14,1.14,0,0,0,214.16,242.25Z"/><path class="cls-8" d="M265.41,246.18a2.57,2.57,0,0,0,1.11.24c1.29,0,1.92-.85,2.08-2.3a1.75,1.75,0,0,1-1.49.6,2.17,2.17,0,0,1,.09-4.33c1.56,0,2.23,1.35,2.23,2.92,0,2.32-.91,3.86-2.88,3.86a3.21,3.21,0,0,1-1.14-.2Zm3.23-2.87c0-1.15-.35-2.19-1.42-2.19a1.27,1.27,0,0,0-1.27,1.44,1.29,1.29,0,0,0,1.36,1.45,1.61,1.61,0,0,0,1.33-.65Z"/><path class="cls-8" d="M313,241.42l1.57-.95h.75v6.62h-.79v-5.75l-1.53.94Z"/><path class="cls-8" d="M318.8,240.39c1.42,0,2.34,1.27,2.34,3.37s-.81,3.41-2.34,3.41-2.29-1.36-2.29-3.41S317.44,240.39,318.8,240.39Zm0,6c.91,0,1.52-.92,1.52-2.65s-.69-2.62-1.52-2.62-1.47.85-1.47,2.62S318,246.41,318.8,246.41Z"/><path class="cls-8" d="M367.11,241.42l1.57-.95h.75v6.62h-.79v-5.75l-1.53.94Z"/><path class="cls-8" d="M370.21,241.42l1.56-.95h.75v6.62h-.79v-5.75l-1.52.94Z"/><path class="cls-7" d="M54.93,153l1.56-.95h.75v6.62h-.79V152.9l-1.52.94Z"/><path class="cls-7" d="M59.55,154.71a3.64,3.64,0,0,1,.79-.1,2,2,0,0,1,2.19,2,2.12,2.12,0,0,1-2.4,2.15,4.05,4.05,0,0,1-1.69-.34v-.79A3.39,3.39,0,0,0,60,158c1.1,0,1.7-.47,1.7-1.43,0-.8-.61-1.21-1.41-1.21a3.87,3.87,0,0,0-1.53.35V152h3.31v.7H59.55Z"/><path d="M106.47,153,108,152h.75v6.62H108V152.9l-1.53.94Z"/><path d="M113.87,152.77a2.22,2.22,0,0,0-.92-.19c-1.33,0-2,1.17-2.21,2.51a2.31,2.31,0,0,1,1.65-.7,1.9,1.9,0,0,1,2,2.1,2.07,2.07,0,0,1-2.08,2.27c-1.56,0-2.35-1.33-2.35-3.11,0-2.11,1.08-3.81,3-3.81a2.88,2.88,0,0,1,.93.15Zm-.36,3.71a1.23,1.23,0,0,0-1.22-1.37,2.17,2.17,0,0,0-1.58.73c.05,1.49.7,2.18,1.55,2.18S113.51,157.38,113.51,156.48Z"/><path d="M159,153l1.57-.95h.74v6.62h-.78V152.9l-1.53.94Z"/><path d="M166.3,152v.7l-2.74,5.92h-.85l2.74-5.92H162V152Z"/><path d="M209.81,153l1.56-.95h.75v6.62h-.79V152.9l-1.52.94Z"/><path d="M217.62,156.93c0,1.11-1,1.8-2.23,1.8s-2.16-.66-2.16-1.75a1.66,1.66,0,0,1,1.2-1.63,1.56,1.56,0,0,1-1.08-1.53,2.06,2.06,0,0,1,4.11,0,1.57,1.57,0,0,1-1.06,1.5A1.57,1.57,0,0,1,217.62,156.93Zm-.82-.07c0-.59-.4-1.16-1.4-1.15a1.21,1.21,0,0,0-1.36,1.23c0,.57.45,1.08,1.36,1.08S216.8,157.46,216.8,156.86Zm-2.65-3.05a1.13,1.13,0,0,0,1.28,1.16,1.15,1.15,0,1,0,0-2.3A1.14,1.14,0,0,0,214.15,153.81Z"/><path d="M261.85,153l1.57-.95h.74v6.62h-.78V152.9l-1.53.94Z"/><path d="M265.41,157.75a2.72,2.72,0,0,0,1.11.23c1.29,0,1.92-.85,2.08-2.3a1.75,1.75,0,0,1-1.49.6,2.17,2.17,0,0,1,.09-4.33c1.56,0,2.23,1.35,2.23,2.92,0,2.32-.91,3.86-2.88,3.86a3.45,3.45,0,0,1-1.14-.19Zm3.23-2.88c0-1.15-.35-2.18-1.42-2.18a1.26,1.26,0,0,0-1.27,1.43,1.29,1.29,0,0,0,1.36,1.45,1.61,1.61,0,0,0,1.33-.65Z"/><path d="M315.81,158v.7h-4.17V158c1.51-1.14,3.13-2.66,3.13-3.95a1.21,1.21,0,0,0-1.34-1.3,2.79,2.79,0,0,0-1.58.59v-.8a2.84,2.84,0,0,1,1.65-.55,1.93,1.93,0,0,1,2.1,2c0,1.3-1.16,2.69-2.86,4Z"/><path d="M318.8,152c1.42,0,2.34,1.27,2.34,3.37s-.81,3.41-2.34,3.41-2.29-1.36-2.29-3.41S317.44,152,318.8,152Zm0,6c.91,0,1.52-.92,1.52-2.65s-.69-2.61-1.52-2.61-1.47.85-1.47,2.61S318,158,318.8,158Z"/><path d="M369.76,158v.7h-4.17V158c1.51-1.14,3.13-2.66,3.13-3.95a1.21,1.21,0,0,0-1.34-1.3,2.81,2.81,0,0,0-1.58.59v-.8a2.86,2.86,0,0,1,1.65-.55,1.93,1.93,0,0,1,2.1,2c0,1.3-1.16,2.69-2.86,4Z"/><path d="M370.21,153l1.56-.95h.75v6.62h-.79V152.9l-1.52.94Z"/><path class="cls-7" d="M57.73,187.43v.7H53.55v-.68c1.52-1.14,3.14-2.66,3.14-3.95a1.21,1.21,0,0,0-1.35-1.3,2.84,2.84,0,0,0-1.58.59V182a2.89,2.89,0,0,1,1.65-.55,1.93,1.93,0,0,1,2.1,2c0,1.3-1.16,2.69-2.86,4Z"/><path class="cls-7" d="M62.55,187.43v.7H58.38v-.68c1.51-1.14,3.13-2.66,3.13-3.95a1.21,1.21,0,0,0-1.35-1.3,2.78,2.78,0,0,0-1.57.59V182a2.83,2.83,0,0,1,1.64-.55,1.93,1.93,0,0,1,2.11,2c0,1.3-1.17,2.69-2.86,4Z"/><path d="M109.73,187.43v.7h-4.18v-.68c1.52-1.14,3.14-2.66,3.14-3.95a1.21,1.21,0,0,0-1.35-1.3,2.78,2.78,0,0,0-1.57.59V182a2.83,2.83,0,0,1,1.64-.55,1.94,1.94,0,0,1,2.11,2c0,1.3-1.17,2.69-2.86,4Z"/><path d="M110.58,181.81a2.77,2.77,0,0,1,1.35-.37c1.38,0,2.06.82,2.06,1.74a1.65,1.65,0,0,1-1.06,1.6,1.51,1.51,0,0,1,1.26,1.53,1.91,1.91,0,0,1-2.17,1.88,4.08,4.08,0,0,1-1.64-.34v-.79a3.43,3.43,0,0,0,1.62.39,1.21,1.21,0,0,0,1.37-1.21c0-.71-.56-1.11-1.55-1.11h-.42v-.7h.42a1.22,1.22,0,0,0,1.35-1.17c0-.74-.5-1.08-1.26-1.08a2.67,2.67,0,0,0-1.33.41Z"/><path d="M160.7,187.43v.7h-4.18v-.68c1.52-1.14,3.14-2.66,3.14-3.95a1.21,1.21,0,0,0-1.35-1.3,2.78,2.78,0,0,0-1.57.59V182a2.83,2.83,0,0,1,1.64-.55,1.93,1.93,0,0,1,2.1,2c0,1.3-1.16,2.69-2.86,4Z"/><path d="M166.18,186.52h-1v1.61h-.79v-1.61h-3v-.7l2.51-4.31h1.3v4.31h1Zm-1.77-.7V182l-2.22,3.84Z"/><path d="M212.73,187.43v.7h-4.18v-.68c1.52-1.14,3.14-2.66,3.14-3.95a1.21,1.21,0,0,0-1.35-1.3,2.78,2.78,0,0,0-1.57.59V182a2.83,2.83,0,0,1,1.64-.55,1.93,1.93,0,0,1,2.11,2c0,1.3-1.17,2.69-2.86,4Z"/><path d="M214.7,184.19a3.72,3.72,0,0,1,.79-.1,2,2,0,0,1,2.19,2,2.12,2.12,0,0,1-2.39,2.15,3.93,3.93,0,0,1-1.7-.35v-.78a3.4,3.4,0,0,0,1.57.38c1.1,0,1.69-.47,1.69-1.43,0-.8-.6-1.21-1.41-1.21a3.92,3.92,0,0,0-1.53.35v-3.66h3.32v.7H214.7Z"/><path d="M264.27,187.43v.7H260.1v-.68c1.52-1.14,3.13-2.66,3.13-3.95a1.21,1.21,0,0,0-1.34-1.3,2.81,2.81,0,0,0-1.58.59V182a2.86,2.86,0,0,1,1.65-.55,1.93,1.93,0,0,1,2.1,2c0,1.3-1.16,2.69-2.86,4Z"/><path d="M269,182.25a2.3,2.3,0,0,0-.92-.2c-1.34,0-2.06,1.18-2.22,2.52a2.32,2.32,0,0,1,1.65-.7,1.9,1.9,0,0,1,1.95,2.1,2.07,2.07,0,0,1-2.08,2.27c-1.56,0-2.35-1.33-2.35-3.11,0-2.11,1.09-3.81,3-3.81a3,3,0,0,1,.93.15Zm-.37,3.71a1.22,1.22,0,0,0-1.22-1.37,2.19,2.19,0,0,0-1.58.73c.05,1.49.7,2.18,1.55,2.18S268.66,186.86,268.66,186Z"/><path d="M316.75,187.43v.7h-4.17v-.68c1.51-1.14,3.13-2.66,3.13-3.95a1.21,1.21,0,0,0-1.34-1.3,2.79,2.79,0,0,0-1.58.59V182a2.84,2.84,0,0,1,1.65-.55,1.93,1.93,0,0,1,2.1,2c0,1.3-1.16,2.69-2.86,4Z"/><path d="M321.45,181.51v.7l-2.74,5.92h-.85l2.74-5.92h-3.46v-.7Z"/><path d="M367.61,187.43v.7h-4.18v-.68c1.52-1.14,3.14-2.66,3.14-3.95a1.21,1.21,0,0,0-1.35-1.3,2.78,2.78,0,0,0-1.57.59V182a2.83,2.83,0,0,1,1.64-.55,1.93,1.93,0,0,1,2.11,2c0,1.3-1.17,2.69-2.86,4Z"/><path d="M372.77,186.41c0,1.11-1,1.8-2.23,1.8s-2.15-.66-2.15-1.75a1.65,1.65,0,0,1,1.19-1.63,1.56,1.56,0,0,1-1.08-1.53,2.06,2.06,0,0,1,4.11,0,1.58,1.58,0,0,1-1.06,1.5A1.57,1.57,0,0,1,372.77,186.41Zm-.81-.07c0-.59-.41-1.16-1.41-1.15a1.2,1.2,0,0,0-1.35,1.23c0,.57.44,1.08,1.35,1.08S372,186.94,372,186.34Zm-2.65-3.05a1.25,1.25,0,1,0,1.23-1.14A1.13,1.13,0,0,0,369.31,183.29Z"/><path class="cls-7" d="M57.63,216.91v.7H53.45v-.68c1.52-1.15,3.13-2.66,3.13-4a1.21,1.21,0,0,0-1.34-1.31,2.86,2.86,0,0,0-1.58.6v-.8a2.89,2.89,0,0,1,1.65-.55,1.92,1.92,0,0,1,2.1,2c0,1.3-1.16,2.69-2.86,4Z"/><path class="cls-7" d="M58.54,216.71a2.69,2.69,0,0,0,1.11.23c1.29,0,1.92-.85,2.08-2.3a1.76,1.76,0,0,1-1.5.6,2.17,2.17,0,0,1,.1-4.33c1.56,0,2.23,1.35,2.23,2.92,0,2.32-.91,3.86-2.88,3.86a3.17,3.17,0,0,1-1.14-.2Zm3.23-2.88c0-1.15-.35-2.19-1.42-2.19a1.27,1.27,0,0,0-1.27,1.44,1.29,1.29,0,0,0,1.36,1.45,1.61,1.61,0,0,0,1.33-.65Z"/><path d="M105.25,211.29a2.77,2.77,0,0,1,1.35-.37c1.38,0,2.07.82,2.07,1.74a1.66,1.66,0,0,1-1.07,1.6,1.5,1.5,0,0,1,1.26,1.52,1.91,1.91,0,0,1-2.16,1.89,4.09,4.09,0,0,1-1.65-.34v-.8a3.34,3.34,0,0,0,1.63.4,1.21,1.21,0,0,0,1.36-1.21c0-.71-.56-1.11-1.55-1.11h-.42v-.7h.42a1.22,1.22,0,0,0,1.35-1.17c0-.74-.5-1.08-1.26-1.08a2.67,2.67,0,0,0-1.33.41Z"/><path d="M111.93,210.91c1.42,0,2.34,1.27,2.34,3.37s-.81,3.41-2.34,3.41-2.29-1.36-2.29-3.41S110.57,210.91,111.93,210.91Zm0,6c.91,0,1.52-.92,1.52-2.65s-.69-2.61-1.52-2.61-1.47.85-1.47,2.61S111.13,216.93,111.93,216.93Z"/><path d="M159.2,211.29a2.78,2.78,0,0,1,1.36-.37c1.37,0,2.06.82,2.06,1.74a1.66,1.66,0,0,1-1.06,1.6,1.49,1.49,0,0,1,1.25,1.52,1.91,1.91,0,0,1-2.16,1.89,4.09,4.09,0,0,1-1.65-.34v-.8a3.36,3.36,0,0,0,1.63.4,1.21,1.21,0,0,0,1.36-1.21c0-.71-.55-1.11-1.54-1.11H160v-.7h.43a1.22,1.22,0,0,0,1.34-1.17c0-.74-.5-1.08-1.25-1.08a2.71,2.71,0,0,0-1.34.41Z"/><path d="M163.34,211.94l1.56-.95h.75v6.62h-.79v-5.75l-1.52.94Z"/><path class="cls-6" d="M27.36,42H21l-1.19,3.8H16.56l5.66-16.74h4.05l5.66,16.74H28.55Zm-.79-2.55-.23-.75c-1.88-6.06-2.13-7.3-2.13-7.3s-.23,1.24-2.14,7.33l-.22.72Z"/><path class="cls-6" d="M44.19,29.05h3.12V39.36c0,4.45-2.6,6.66-6.55,6.66s-6.53-2.21-6.53-6.48V29.05h3.13V39.51c0,2.73,1.56,3.63,3.4,3.63s3.43-.87,3.43-3.75Z"/><path class="cls-6" d="M64.59,44.08h0l0,.27A9.92,9.92,0,0,1,58.88,46C53.66,46,50,42.76,50,37.4s3.82-8.65,8.88-8.65a10.54,10.54,0,0,1,4.89,1.07V33A9.29,9.29,0,0,0,59,31.66c-3.35,0-5.58,2.26-5.58,5.74S55.5,43.11,59,43.11a7.38,7.38,0,0,0,2.51-.44v-4H58.43V36h6.16Z"/><path class="cls-6" d="M77.74,29.05h3.12V39.36c0,4.45-2.6,6.66-6.55,6.66s-6.53-2.21-6.53-6.48V29.05h3.13V39.51c0,2.73,1.57,3.63,3.4,3.63s3.43-.87,3.43-3.75Z"/><path class="cls-6" d="M93.55,32.78a8.13,8.13,0,0,0-4-1.12c-1.58,0-2.48.8-2.48,1.86s1.27,1.84,2.83,2.54c2.11.92,4.42,2,4.42,5S92,46,88.53,46a10,10,0,0,1-4.69-1.06V41.72a8,8,0,0,0,4.67,1.54C90,43.26,91,42.49,91,41.2s-1.44-1.89-3.25-2.71-4.07-2-4.07-4.84,2.28-4.72,5.76-4.72a9.66,9.66,0,0,1,4.07.82Z"/><path class="cls-6" d="M107.64,31.64H103.4V45.79h-3.15V31.64H96V29.05h11.64Z"/><rect class="cls-9" x="15.87" y="137.25" width="307.55" height="7"/><rect class="cls-10" x="119.3" y="78.1" width="255.83" height="7"/><rect class="cls-9" x="67.59" y="107.52" width="307.55" height="7"/><text class="cls-11" transform="translate(202.19 112.83)">오아시스 해커톤☆</text><text class="cls-12" transform="translate(205.73 83.4)">이번 주 호남에서 가장 핫한 축제는 어디?</text></g></g></svg>