<?xml version="1.0" encoding="utf-8"?>
<!-- Generator: Adobe Illustrator 23.1.0, SVG Export Plug-In . SVG Version: 6.00 Build 0)  -->
<svg version="1.1" id="Layer_1" xmlns="http://www.w3.org/2000/svg" xmlns:xlink="http://www.w3.org/1999/xlink" x="0px" y="0px"
	 viewBox="0 0 478.5 102.2" style="enable-background:new 0 0 478.5 102.2;" xml:space="preserve">
<style type="text/css">
	.st0{fill:#4DC2CA;}
	.st1{fill:none;stroke:#4DC2CA;stroke-width:10.4239;stroke-linecap:round;stroke-linejoin:round;stroke-miterlimit:10;}
	.st2{fill:url(#SVGID_1_);}
	.st3{fill:url(#SVGID_2_);}
	.st4{fill:url(#SVGID_3_);}
</style>
<g>
	<g>
		<path class="st0" d="M160,63.3c-5.1-0.1-9.3-0.4-11.5-0.8c-8.7-1.4-14.2-7.1-14.4-15.4c-0.3-6.4-0.5-23.2,0.4-29.1
			c0.5-3.1,3.3-5,6.6-5.6c8.6-1.3,44.4-1.2,60.5-0.2c3.2,0.2,5.6,3.2,5.2,6.5v0c-0.4,2.9-2.9,5-5.7,4.9c-14.5-0.6-46.6-0.8-52-0.2
			c-1.3,0.1-1.9,1-2.1,2.9c-0.4,4.6,0.1,18,0.1,19c0,3.6,1.6,5.7,5.4,6.3c4.1,0.5,34.7,0.4,49.5-0.3c2.8-0.1,5.3,2,5.6,4.8v0
			c0.4,3.2-1.9,6.1-5,6.2c-5.6,0.3-13,0.6-20.6,0.8L160,63.3z M181.7,80.1c6.2-0.1,15.3-0.5,21.8-0.9c2.8-0.2,5.4,1.8,6,4.5v0
			c0.7,3.4-1.8,6.7-5.3,6.9c-17.5,0.9-47.5,1.2-66.4,0.3c-3.3-0.2-5.8-3.1-5.3-6.4v0c0.4-3,3-5.1,5.9-5c8,0.4,15.5,0.5,20.8,0.4
			c0.2,0,0.4,0,0.5,0L181.7,80.1z"/>
		<path class="st0" d="M227.4,42.3c-1.3,0-1.6,0.4-1.7,1.5c-0.1,1.3-0.1,2.8,0.1,3.8c0.8,3.9,2.3,3.9,6.3,4
			c3.7,0.2,19.5,0.4,28.5-0.2c2.7-0.2,5.1,1.7,5.6,4.4l0,0.1c0.5,3.1-1.8,6-5,6.1c-9.3,0.4-25.3,0.5-31.2,0.3
			c-9.9-0.7-16.7-4.3-16.9-14.9c-0.1-4.3,0-6.4,0.4-9.3c0.4-2.7,2.3-6.5,7.4-6.5c10.7,0,23.5,0,30.4-0.1c1.3,0,1.7-1,1.7-2.2l0.1-4
			c0.1-1.6-0.4-2.2-1.5-2.3c-2.2,0-21.8,0.1-31.5,0.2c-2.7,0-5-1.9-5.5-4.5v0c-0.6-3.3,1.9-6.4,5.3-6.5c11.6-0.4,33.9,0,37.2,0.2
			c4.5,0.2,7.8,3.6,8.1,7.3c0.5,3.7,0.7,10.8,0.2,15.1c-0.4,4.8-4.3,7.2-9.7,7.3C252.1,42.2,229.9,42.3,227.4,42.3z M286,44.6
			c-0.1,4.3-0.3,8.7-0.7,12.9c-0.3,3.5-3.4,6.1-6.9,5.8l0,0c-3.5-0.3-6-3.3-5.8-6.7c0.5-9.5,0.9-22.9,0.1-37.7
			c-0.2-3.5,2.4-6.5,5.9-6.7v0c3.5-0.2,6.5,2.4,6.7,5.9c0.2,2.4,0.3,4.9,0.4,7.2L286,44.6z"/>
		<circle class="st0" cx="294.8" cy="37.3" r="7"/>
		<path class="st1" d="M221.9,70L221.9,70c0,9.1,7.4,16.4,16.4,16.4h42.3"/>
		<line class="st1" x1="170.9" y1="58.1" x2="170.9" y2="84.8"/>
		<path class="st0" d="M331.2,63.3c-5.1-0.1-9.3-0.4-11.5-0.8c-8.7-1.4-14.2-7.1-14.4-15.4c-0.3-6.4-0.5-23.2,0.4-29.1
			c0.5-3.1,3.3-5,6.6-5.6c8.6-1.3,44.4-1.2,60.5-0.2c3.2,0.2,5.6,3.2,5.2,6.5v0c-0.4,2.9-2.9,5-5.7,4.9c-14.5-0.6-46.6-0.8-52-0.2
			c-1.3,0.1-1.9,1-2.1,2.9c-0.4,4.6,0.1,18,0.1,19c0,3.6,1.6,5.7,5.4,6.3c4.1,0.5,34.7,0.4,49.5-0.3c2.8-0.1,5.3,2,5.6,4.8v0
			c0.4,3.2-1.9,6.1-5,6.2c-5.6,0.3-13,0.6-20.6,0.8L331.2,63.3z M352.9,80.1c6.2-0.1,15.3-0.5,21.8-0.9c2.8-0.2,5.4,1.8,6,4.5v0
			c0.7,3.4-1.8,6.7-5.3,6.9c-17.5,0.9-47.5,1.2-66.4,0.3c-3.3-0.2-5.8-3.1-5.3-6.4v0c0.4-3,3-5.1,5.9-5c8,0.4,15.5,0.5,20.8,0.4
			c0.2,0,0.4,0,0.5,0L352.9,80.1z"/>
		<path class="st0" d="M398.7,42.3c-1.3,0-1.6,0.4-1.7,1.5c-0.1,1.3-0.1,2.8,0.1,3.8c0.8,3.9,2.3,3.9,6.3,4
			c3.7,0.2,19.5,0.4,28.5-0.2c2.7-0.2,5.1,1.7,5.6,4.4l0,0.1c0.5,3.1-1.8,6-5,6.1c-9.3,0.4-25.3,0.5-31.2,0.3
			c-9.9-0.7-16.7-4.3-16.9-14.9c-0.1-4.3,0-6.4,0.4-9.3c0.4-2.7,2.3-6.5,7.4-6.5c10.7,0,23.5,0,30.4-0.1c1.3,0,1.7-1,1.7-2.2l0.1-4
			c0.1-1.6-0.4-2.2-1.5-2.3c-2.2,0-21.8,0.1-31.5,0.2c-2.7,0-5-1.9-5.5-4.5v0c-0.6-3.3,1.9-6.4,5.3-6.5c11.6-0.4,33.9,0,37.2,0.2
			c4.5,0.2,7.8,3.6,8.1,7.3c0.5,3.7,0.7,10.8,0.2,15.1c-0.4,4.8-4.3,7.2-9.7,7.3C423.3,42.2,401.2,42.3,398.7,42.3z M457.3,44.6
			c-0.1,4.3-0.3,8.7-0.7,12.9c-0.3,3.5-3.4,6.1-6.9,5.8l0,0c-3.5-0.3-6-3.3-5.8-6.7c0.5-9.5,0.9-22.9,0.1-37.7
			c-0.2-3.5,2.4-6.5,5.9-6.7l0,0c3.5-0.2,6.5,2.4,6.7,5.9c0.2,2.4,0.3,4.9,0.4,7.2L457.3,44.6z"/>
		<circle class="st0" cx="466.1" cy="37.3" r="7"/>
		<path class="st1" d="M393.1,70L393.1,70c0,9.1,7.4,16.4,16.4,16.4h42.3"/>
		<line class="st1" x1="342.2" y1="58.1" x2="342.2" y2="84.8"/>
	</g>
	<g>
		<g>
			<g>
				<linearGradient id="SVGID_1_" gradientUnits="userSpaceOnUse" x1="87.8829" y1="45.7657" x2="1.6806" y2="110.9999">
					<stop  offset="1.601735e-02" style="stop-color:#4DC2CA"/>
					<stop  offset="1" style="stop-color:#7B77B7"/>
				</linearGradient>
				<path class="st2" d="M101.9,71.8c0,15-12.2,27.3-27.3,27.3c-7,0-13.7-2.7-18.8-7.5l-2.3-2.2l-2.3,2.2C46.1,96.3,39.5,99,32.4,99
					c-15,0-27.3-12.2-27.3-27.3c0-10.9,6.7-20.8,16.5-25.1c3.7,10,12,17.7,22.4,20.8l3.4,1l0.9-3.4c1.3-5,3.9-9.5,7.6-13
					c5.1-4.8,11.8-7.5,18.8-7.5c2.6,0,5.2,0.4,7.6,1.1C93.9,48.9,101.9,59.7,101.9,71.8z"/>
				<linearGradient id="SVGID_2_" gradientUnits="userSpaceOnUse" x1="72.8079" y1="25.8451" x2="-13.3945" y2="91.0794">
					<stop  offset="1.601735e-02" style="stop-color:#4DC2CA"/>
					<stop  offset="1" style="stop-color:#7B77B7"/>
				</linearGradient>
				<path class="st3" d="M74.7,37.7c-8.8,0-17.1,3.3-23.5,9.4c-3.8,3.6-6.6,7.9-8.4,12.7c-7.7-3.3-13.6-10.1-15.7-18.3l-0.9-3.4
					L23.2,39c0.2,1.1,0.4,2.2,0.6,3.3C26.5,52.8,34.6,61.2,45,64.2c1.4-5.7,4.5-10.7,8.6-14.6c5.5-5.2,12.9-8.4,21.1-8.4
					c3,0,5.9,0.4,8.6,1.2c0.3-1.1,0.5-2.2,0.6-3.3C80.9,38.2,77.8,37.7,74.7,37.7z"/>
			</g>
		</g>
		<g>
			<g>
				<linearGradient id="SVGID_3_" gradientUnits="userSpaceOnUse" x1="68.0707" y1="19.5852" x2="-18.1317" y2="84.8195">
					<stop  offset="1.601735e-02" style="stop-color:#4DC2CA"/>
					<stop  offset="1" style="stop-color:#7B77B7"/>
				</linearGradient>
				<path class="st4" d="M84.2,34.8c0,1.4-0.1,2.8-0.3,4.2c-0.2,1.1-0.4,2.2-0.6,3.3c-2.7-0.8-5.6-1.2-8.6-1.2
					c-8.2,0-15.6,3.2-21.1,8.4c-4.1,3.9-7.1,9-8.6,14.6c-10.4-3-18.5-11.4-21.1-21.9c-0.3-1.1-0.5-2.2-0.6-3.3
					c-0.2-1.4-0.3-2.8-0.3-4.2c0-16.9,13.7-30.6,30.6-30.6S84.2,17.9,84.2,34.8z"/>
			</g>
		</g>
	</g>
</g>
</svg>
