<svg xmlns="http://www.w3.org/2000/svg" viewBox="0 0 372.06 87.47"><defs><style>.cls-1{fill:#4ec4cb;}.cls-2{fill:none;stroke:#4ec4cb;stroke-linecap:round;stroke-linejoin:round;stroke-width:11.38px;}</style></defs><title>Asset 1</title><g id="Layer_2" data-name="Layer 2"><g id="Layer_1-2" data-name="Layer 1"><path class="cls-1" d="M30.2,56.56a94.76,94.76,0,0,1-12.58-.82C8.15,54.22,2.16,48,2,39c-.32-7-.53-25.33.42-31.83C2.89,3.77,6,1.72,9.52,1.07,19-.33,58.05-.28,75.58.8a6.2,6.2,0,0,1,5.64,7.12h0A6.11,6.11,0,0,1,75,13.29c-15.79-.7-50.93-.87-56.81-.21-1.47.11-2.11,1.09-2.31,3.14-.43,5,.1,19.71.1,20.79,0,3.9,1.79,6.17,5.89,6.93,4.46.57,37.91.47,54.11-.38a5.94,5.94,0,0,1,6.14,5.3h0a6,6,0,0,1-5.51,6.81c-6.09.36-14.19.66-22.48.84ZM53.9,75c6.82-.11,16.76-.56,23.78-1a6.28,6.28,0,0,1,6.52,5h0a6.26,6.26,0,0,1-5.8,7.55c-19.12,1-51.83,1.36-72.52.28a6.2,6.2,0,0,1-5.83-7h0a6.21,6.21,0,0,1,6.49-5.41c8.79.47,17,.6,22.67.48h.57Z"/><path class="cls-1" d="M103.84,33.65c-1.48,0-1.79.43-1.9,1.69a17.61,17.61,0,0,0,.11,4.1c.84,4.21,2.52,4.21,6.84,4.42,4.06.17,21.26.42,31.17-.2a5.79,5.79,0,0,1,6.1,4.84v.11a5.76,5.76,0,0,1-5.47,6.68c-10.16.4-27.64.6-34,.36-10.84-.74-18.21-4.74-18.41-16.31a58.4,58.4,0,0,1,.42-10.21,7.81,7.81,0,0,1,8.1-7c11.68,0,25.67,0,33.25-.1,1.47,0,1.89-1.06,1.89-2.43l.1-4.41c.11-1.79-.42-2.42-1.68-2.53-2.4,0-23.82.07-34.35.21a6,6,0,0,1-6-5h0A6,6,0,0,1,95.73.74c12.68-.41,37,0,40.62.19a9,9,0,0,1,8.84,8,86.81,86.81,0,0,1,.21,16.52c-.42,5.26-4.74,7.89-10.63,8C130.77,33.55,106.57,33.65,103.84,33.65Zm64,2.47c-.1,4.7-.35,9.49-.73,14.09a7,7,0,0,1-7.54,6.33h0a7,7,0,0,1-6.38-7.34A371.52,371.52,0,0,0,153.33,8a6.91,6.91,0,0,1,6.46-7.3h0a6.91,6.91,0,0,1,7.32,6.44c.17,2.57.3,5.33.41,7.88Z"/><circle class="cls-1" cx="177.43" cy="28.16" r="7.63"/><path class="cls-2" d="M97.76,63.85h0a17.93,17.93,0,0,0,17.93,17.93h46.24"/><line class="cls-2" x1="42.17" y1="50.94" x2="42.17" y2="80.03"/><path class="cls-1" d="M217.2,56.56a94.71,94.71,0,0,1-12.57-.82C195.16,54.22,189.16,48,189,39c-.32-7-.53-25.33.42-31.83.53-3.36,3.58-5.41,7.15-6.06C206-.33,245.05-.28,262.58.8a6.21,6.21,0,0,1,5.65,7.12h0A6.13,6.13,0,0,1,262,13.29c-15.79-.7-50.92-.87-56.81-.21-1.47.11-2.1,1.09-2.31,3.14-.42,5,.1,19.71.1,20.79,0,3.9,1.79,6.17,5.89,6.93,4.46.57,37.92.47,54.11-.38a5.94,5.94,0,0,1,6.14,5.3h0a6,6,0,0,1-5.51,6.81c-6.09.36-14.19.66-22.48.84ZM240.91,75c6.81-.11,16.75-.56,23.77-1a6.27,6.27,0,0,1,6.52,5h0a6.26,6.26,0,0,1-5.79,7.55c-19.12,1-51.84,1.36-72.52.28a6.21,6.21,0,0,1-5.84-7h0a6.22,6.22,0,0,1,6.49-5.41c8.79.47,17,.6,22.68.48h.57Z"/><path class="cls-1" d="M290.84,33.65c-1.47,0-1.79.43-1.9,1.69a17.61,17.61,0,0,0,.11,4.1c.84,4.21,2.53,4.21,6.84,4.42,4.06.17,21.26.42,31.18-.2a5.77,5.77,0,0,1,6.09,4.84l0,.11a5.76,5.76,0,0,1-5.47,6.68c-10.17.4-27.64.6-34,.36-10.84-.74-18.2-4.74-18.41-16.31a58.4,58.4,0,0,1,.42-10.21,7.81,7.81,0,0,1,8.1-7c11.68,0,25.67,0,33.25-.1,1.47,0,1.89-1.06,1.89-2.43l.11-4.41c.1-1.79-.42-2.42-1.69-2.53-2.4,0-23.82.07-34.34.21a6,6,0,0,1-6-5h0A6,6,0,0,1,282.73.74c12.68-.41,37,0,40.62.19a9,9,0,0,1,8.84,8,86,86,0,0,1,.21,16.52c-.42,5.26-4.74,7.89-10.63,8C317.77,33.55,293.57,33.65,290.84,33.65Zm64,2.47c-.1,4.7-.35,9.49-.73,14.09a7,7,0,0,1-7.54,6.33h0a7,7,0,0,1-6.38-7.34A371.52,371.52,0,0,0,340.33,8a6.92,6.92,0,0,1,6.46-7.3h0a6.93,6.93,0,0,1,7.33,6.44c.17,2.57.3,5.33.4,7.88Z"/><circle class="cls-1" cx="364.43" cy="28.16" r="7.63"/><path class="cls-2" d="M284.76,63.85h0a17.93,17.93,0,0,0,17.93,17.93h46.25"/><line class="cls-2" x1="229.17" y1="50.94" x2="229.17" y2="80.03"/></g></g></svg>